<?xml version="1.0" encoding="utf-8"?>
<!-- Generator: Adobe Illustrator 23.0.1, SVG Export Plug-In . SVG Version: 6.00 Build 0)  -->
<svg version="1.1" id="Layer_1" xmlns="http://www.w3.org/2000/svg" xmlns:xlink="http://www.w3.org/1999/xlink" x="0px" y="0px"
	 viewBox="0 0 512.01 448" style="enable-background:new 0 0 512.01 448;" xml:space="preserve">
<style type="text/css">
	.st0{fill:#D7E3ED;}
</style>
<path class="st0" d="M416.01,192c53.02,0,96-42.98,96-96h-64c0-53.02-42.98-96-96-96s-96,42.98-96,96c0,23.15,8.37,44.15,22.1,60.59
	c6.25,7.48,9.9,16.78,9.9,26.53c0,22.58-18.3,40.88-40.88,40.88h-21.69c-31.51,0-80.18-13.2-101.68-36.24
	c-10.02-10.73-27.75-3.59-27.75,10.87c0,84.7,68.67,153.37,153.37,153.37h-32c-76.01,0-138.67-55.44-150.82-128h-50.4
	c-9.12,0-16.79,7.66-16.12,16.75C8.62,356.64,105.36,448,223.43,448h107.2c55.51,0,110.81-44.52,116.72-99.71
	c4.54-42.43-14.76-80.4-46.04-102.86c-10.85-7.79-17.3-20.27-17.3-33.63c0-7.12,1.97-13.83,5.33-19.79L416.01,192L416.01,192z
	 M352.01,112c-8.84,0-16-7.16-16-16s7.16-16,16-16s16,7.16,16,16S360.85,112,352.01,112z"/>
</svg>
