<?xml version="1.0" encoding="utf-8"?>
<!-- Generator: Adobe Illustrator 23.0.1, SVG Export Plug-In . SVG Version: 6.00 Build 0)  -->
<svg version="1.1" id="Layer_1" xmlns="http://www.w3.org/2000/svg" xmlns:xlink="http://www.w3.org/1999/xlink" x="0px" y="0px"
	 viewBox="0 0 477.7 83.1" style="enable-background:new 0 0 477.7 83.1;" xml:space="preserve">
<style type="text/css">
	.st0{fill:#214768;}
</style>
<path class="st0" d="M27.9,26.6H15.2v40.9c0,9.5,4.4,10.4,12.7,10.1v3.8c-8.9,0.6-17.4-0.7-17-13.9V26.6H0v-3.8h10.8V4.6h4.3v18.2
	h12.8V26.6z M82,70.6c0,3.4,0,7.1,3.9,7.1c0.8,0,1.8-0.1,3.2-0.3v3.6c-1.3,0.2-2.4,0.5-3.5,0.5c-6.8,0-7.9-3.8-7.9-8.5v-3.1h-0.2
	c-2.7,7-10.6,13-21.8,13C44.6,82.8,36,78.5,36,66.2c0-13.7,11.9-16.5,21.5-17.3c19.4-1.4,20.2-2.6,20.2-12.2c0-2.6-3-11.5-16.3-11.5
	c-10.5,0-17.4,5.5-18,15.6h-4.3c0.6-12.9,8.5-19.4,22.3-19.4c10.3,0,20.5,3.2,20.5,15.3V70.6z M77.6,48.1
	c-3.4,3.9-12.8,3.4-21.2,4.6c-10.3,1.1-16.1,4.8-16.1,13.6c0,7.1,5.1,12.8,15.4,12.8c19.7,0,21.9-16.9,21.9-20V48.1z M98.8,0h4.3
	v53.9l36.1-31.1h6.3l-25.6,21.9l27.5,36.7h-5.9l-25-33.4l-13.3,11.3v22.1h-4.3V0z M156,52.7C155.7,66.5,163,79,177.5,79
	c11.1,0,18.9-6.6,21-17.4h4.3c-2.3,13.7-11.4,21.2-25.3,21.2c-17.1,0-26.1-13.5-25.9-29.6c-0.2-16.1,8.2-31.7,25.9-31.7
	c18.4,0,26.6,14.5,25.8,31.2H156z M198.9,48.9c-0.2-12.3-8-23.7-21.4-23.7c-13,0-20.6,12.1-21.5,23.7H198.9z M240.4,22.2h18.8v8.1
	h0.2c3.5-6,11.5-9.8,18.6-9.8c19.7,0,21.3,14.4,21.3,22.9v38H280V52.8c0-8.1,0.9-16.3-9.7-16.3c-7.3,0-10.5,6.2-10.5,12.7v32.3
	h-19.4V22.2z M337.7,20.5c18.4,0,31.2,13.6,31.2,31.3c0,17.8-12.9,31.2-31.2,31.2s-31.1-13.5-31.1-31.2
	C306.5,34.1,319.3,20.5,337.7,20.5z M337.7,68.3c9,0,11.9-8.9,11.9-16.4c0-7.5-2.9-16.5-11.9-16.5s-11.7,9-11.7,16.5
	C325.9,59.4,328.6,68.3,337.7,68.3z M411.9,34.8h-12v26.9c0,4.7,2.7,5.7,7,5.7c1.6,0,3.3-0.2,5-0.2v14.2c-3.5,0.1-7.1,0.6-10.6,0.6
	c-16.5,0-20.7-4.8-20.7-20.9V34.8h-9.8V22.2h9.8V4.3h19.4v17.9h12V34.8z M434.2,56.5c0.3,8.1,5,13.5,13.2,13.5
	c4.7,0,9.2-2.2,11.1-6.5h18.1c-3.5,13.7-16.2,19.6-29.4,19.6c-19.3,0-32.4-11.6-32.4-31.5c0-18.1,14.5-31.1,31.9-31.1
	c21.2,0,31.8,16,30.9,36H434.2z M458.3,45.7c-0.3-6.6-5-12.1-11.5-12.1c-6.8,0-11.4,4.9-12.5,12.1H458.3z M220.2,70.8
	c-2.9,0-5.3,2.4-5.3,5.3s2.4,5.3,5.3,5.3s5.3-2.4,5.3-5.3S223.1,70.8,220.2,70.8z"/>
</svg>
